# This file uses centimeters as units for non-parametric coordinates.

v 2.563640 12.728154 0.000000
v 0.979223 13.879301 0.000000
v -0.609174 13.799305 0.000000
v -2.193591 12.604804 0.000000
v -2.798784 10.742218 0.000000
v -2.563640 9.002974 0.000000
v -0.979223 7.851826 0.000000
v 0.979223 7.851826 0.000000
v 2.563640 9.002975 0.000000
v 3.168833 10.865568 0.000000
v 4.272733 13.969887 2.112555
v 1.632038 15.888462 2.112555
v -1.632040 15.931817 2.112555
v -3.902684 13.846533 2.112555
v -5.281389 10.865568 2.112555
v -4.272733 7.761245 2.112555
v -1.249431 5.842668 2.112555
v 1.249432 5.842669 2.112555
v 4.272733 7.761245 2.112555
v 5.281388 10.865568 2.112555
v 5.981827 15.211613 -0.000000
v 2.284854 17.897621 -0.000000
v -2.284855 17.940975 -0.000000
v -5.981827 15.211611 -0.000000
v -7.393944 10.865568 -0.000000
v -6.351876 7.074590 -0.000000
v -2.284854 3.833508 -0.000000
v 2.284854 3.833508 -0.000000
v 5.981826 6.519516 -0.000000
v 7.393943 10.865568 -0.000000
v 4.272733 13.969883 -2.112555
v 1.632038 15.888462 -2.112555
v -1.632039 15.931817 -2.112555
v -3.902684 13.846533 -2.112555
v -5.281388 10.865568 -2.112555
v -4.272733 7.761245 -2.112555
v -1.249431 5.842669 -2.112555
v 1.249431 5.842669 -2.112555
v 4.272733 7.761246 -2.112555
v 5.281388 10.865568 -2.112555
v -1.067691 -18.481941 1.788818
v 1.048236 -18.481941 1.788818
v -1.944440 -18.481953 -0.000000
v 1.924986 -18.481953 -0.000000
v -1.067690 -18.481941 -1.788818
v 1.048235 -18.481941 -1.788818
v -1.067691 -12.021852 1.788818
v -1.067691 -9.599326 1.788818
v 1.048236 -9.599326 1.788818
v 1.048236 -12.021852 1.788818
v -1.944440 -12.021852 -0.000000
v -1.944440 -9.599326 -0.000000
v 1.924986 -9.599326 -0.000000
v 1.924986 -12.021852 -0.000000
v -1.067690 -12.021852 -1.788818
v -1.067690 -9.599326 -1.788818
v 1.048235 -12.021852 -1.788818
v 1.048235 -9.599326 -1.788818
v -1.067691 -16.784670 1.788818
v -1.067691 -14.362143 1.788818
v 1.048236 -14.362143 1.788818
v 1.048236 -16.784670 1.788818
v -1.944440 -16.784670 -0.000000
v -1.944440 -14.362143 -0.000000
v 1.924986 -14.362143 -0.000000
v 1.924986 -16.784670 -0.000000
v -1.067690 -16.784670 -1.788818
v -1.067690 -14.362143 -1.788818
v 1.048235 -16.784670 -1.788818
v 1.048235 -14.362143 -1.788818
v 5.499573 -12.021852 1.788818
v 5.499573 -9.599326 1.788818
v 6.376323 -12.021852 -0.000000
v 6.376323 -9.599326 -0.000000
v 5.499573 -12.021852 -1.788818
v 5.499573 -9.599326 -1.788818
v 5.499573 -16.784670 1.788818
v 5.499573 -14.362143 1.788818
v 6.376323 -16.784670 -0.000000
v 6.376323 -14.362143 -0.000000
v 5.499573 -16.784670 -1.788818
v 5.499573 -14.362143 -1.788818
v -1.067691 2.414740 1.788818
v 1.048236 2.414740 1.788818
v -1.944440 2.414740 -0.000000
v 1.924986 2.414740 -0.000000
v -1.067690 2.414740 -1.788818
v 1.048235 2.414740 -1.788818
v 0.831462 -2.341264 1.788818
v 1.708212 -2.117081 -0.000000
v -0.980981 -2.882300 1.788818
v -1.857731 -3.106481 -0.000000
v -0.980981 -2.882300 -1.788818
v 0.831462 -2.341264 -1.788818
vt 0.889582 0.923599
vt 0.889582 0.923599
vt 0.889582 0.923599
vt 0.889582 0.923599
vt 0.889582 0.923599
vt 0.889582 0.923599
vt 0.889582 0.923599
vt 0.889582 0.923599
vt 0.889582 0.923599
vt 0.889582 0.923599
vt 0.889582 0.923599
vt 0.889582 0.923599
vt 0.889582 0.923599
vt 0.889582 0.923599
vt 0.889582 0.923599
vt 0.889582 0.923599
vt 0.889582 0.923599
vt 0.889582 0.923599
vt 0.889582 0.923599
vt 0.889582 0.923599
vt 0.889582 0.923599
vt 0.889582 0.923601
vt 0.889582 0.923601
vt 0.889582 0.923599
vt 0.889582 0.923599
vt 0.889582 0.923599
vt 0.889582 0.923599
vt 0.889582 0.923601
vt 0.889582 0.923601
vt 0.889582 0.923601
vt 0.889582 0.923601
vt 0.889582 0.923599
vt 0.889582 0.923599
vt 0.889582 0.923599
vt 0.889582 0.923599
vt 0.889582 0.923599
vt 0.889582 0.923599
vt 0.889582 0.923599
vt 0.889582 0.923599
vt 0.889582 0.923599
vt 0.889582 0.923599
vt 0.889582 0.923601
vt 0.889582 0.923601
vt 0.889582 0.923599
vt 0.889582 0.923599
vt 0.889582 0.923599
vt 0.889582 0.923599
vt 0.889582 0.923599
vt 0.889582 0.923599
vt 0.889582 0.923599
vt 0.889582 0.923599
vt 0.889582 0.923599
vt 0.889582 0.923599
vt 0.889582 0.923599
vt 0.889582 0.923599
vt 0.889582 0.923599
vt 0.889582 0.923599
vt 0.889582 0.923599
vt 0.889582 0.923599
vt 0.889582 0.923599
vt 0.889582 0.923599
vt 0.889582 0.923599
vt 0.889582 0.923601
vt 0.889582 0.923599
vt 0.889582 0.923599
vt 0.889582 0.923601
vt 0.889582 0.923601
vt 0.889582 0.923599
vt 0.889582 0.923599
vt 0.889582 0.923601
vt 0.889582 0.923601
vt 0.889582 0.923599
vt 0.889582 0.923599
vt 0.889582 0.923601
vt 0.889582 0.923601
vt 0.889582 0.923599
vt 0.889582 0.923599
vt 0.889582 0.923601
vt 0.889582 0.923600
vt 0.889582 0.923600
vt 0.889582 0.923600
vt 0.889582 0.923600
vt 0.889582 0.923600
vt 0.889582 0.923600
vt 0.889582 0.923599
vt 0.889582 0.923599
vt 0.889582 0.923601
vt 0.889582 0.923599
vt 0.889582 0.923599
vt 0.889582 0.923600
vt 0.889582 0.923599
vt 0.889582 0.923600
vt 0.889582 0.923599
vt 0.889582 0.923600
vn -0.425919 -0.586228 0.689152
vn -0.425919 -0.586228 0.689152
vn -0.425919 -0.586228 0.689152
vn -0.425919 -0.586228 0.689152
vn 0.005391 -0.713876 0.700251
vn 0.005391 -0.713876 0.700251
vn 0.005391 -0.713876 0.700251
vn 0.005391 -0.713876 0.700251
vn 0.451997 -0.531278 0.716549
vn 0.451997 -0.531278 0.716549
vn 0.451997 -0.531278 0.716549
vn 0.451997 -0.531278 0.716549
vn 0.641223 -0.262642 0.721008
vn 0.641223 -0.262642 0.721008
vn 0.641223 -0.262642 0.721008
vn 0.641223 -0.262642 0.721008
vn 0.675787 0.173538 0.716378
vn 0.675787 0.173538 0.716378
vn 0.675787 0.173538 0.716378
vn 0.675787 0.173538 0.716378
vn 0.412098 0.618568 0.668991
vn 0.412098 0.618568 0.668991
vn 0.412098 0.618568 0.668991
vn 0.412098 0.618568 0.668991
vn -0.000000 0.724617 0.689151
vn -0.000000 0.724617 0.689151
vn -0.000000 0.724617 0.689151
vn -0.000000 0.724617 0.689151
vn -0.412098 0.618568 0.668991
vn -0.412098 0.618568 0.668991
vn -0.412098 0.618568 0.668991
vn -0.412098 0.618568 0.668991
vn -0.689152 0.223919 0.689152
vn -0.689152 0.223919 0.689152
vn -0.689152 0.223919 0.689152
vn -0.689152 0.223919 0.689152
vn -0.689152 -0.223919 0.689152
vn -0.689152 -0.223919 0.689152
vn -0.689152 -0.223919 0.689152
vn -0.689152 -0.223919 0.689152
vn 0.425919 0.586228 0.689152
vn 0.425919 0.586228 0.689152
vn 0.425919 0.586228 0.689152
vn 0.425919 0.586228 0.689152
vn 0.008020 0.724594 0.689129
vn 0.008020 0.724594 0.689129
vn 0.008020 0.724594 0.689129
vn 0.008020 0.724594 0.689129
vn -0.437928 0.542798 0.716651
vn -0.437928 0.542798 0.716651
vn -0.437928 0.542798 0.716651
vn -0.437928 0.542798 0.716651
vn -0.647029 0.246450 0.721537
vn -0.647029 0.246450 0.721537
vn -0.647029 0.246450 0.721537
vn -0.647029 0.246450 0.721537
vn -0.678698 -0.201851 0.706135
vn -0.678698 -0.201851 0.706135
vn -0.678698 -0.201851 0.706135
vn -0.678698 -0.201851 0.706135
vn -0.426665 -0.586316 0.688615
vn -0.426665 -0.586316 0.688615
vn -0.426665 -0.586316 0.688615
vn -0.426665 -0.586316 0.688615
vn 0.000000 -1.000000 0.000005
vn 0.000000 -1.000000 0.000005
vn 0.000000 -1.000000 0.000005
vn 0.000000 -1.000000 0.000005
vn 0.399301 -0.582770 0.707770
vn 0.399301 -0.582769 0.707770
vn 0.399301 -0.582769 0.707770
vn 0.399301 -0.582769 0.707770
vn 0.689152 -0.223919 0.689152
vn 0.689152 -0.223919 0.689152
vn 0.689152 -0.223919 0.689152
vn 0.689152 -0.223919 0.689152
vn 0.689152 0.223919 0.689152
vn 0.689152 0.223919 0.689152
vn 0.689152 0.223919 0.689152
vn 0.689152 0.223919 0.689152
vn 0.425919 0.586227 -0.689152
vn 0.425919 0.586227 -0.689152
vn 0.425919 0.586227 -0.689152
vn 0.425919 0.586227 -0.689152
vn 0.008020 0.724594 -0.689130
vn 0.008020 0.724594 -0.689130
vn 0.008020 0.724594 -0.689130
vn 0.008020 0.724594 -0.689130
vn -0.437928 0.542798 -0.716651
vn -0.437928 0.542798 -0.716651
vn -0.437928 0.542798 -0.716651
vn -0.437928 0.542798 -0.716651
vn -0.647029 0.246450 -0.721537
vn -0.647029 0.246450 -0.721537
vn -0.647029 0.246450 -0.721537
vn -0.647029 0.246450 -0.721537
vn -0.678697 -0.201851 -0.706135
vn -0.678697 -0.201851 -0.706135
vn -0.678697 -0.201851 -0.706135
vn -0.678697 -0.201851 -0.706135
vn -0.426665 -0.586316 -0.688615
vn -0.426665 -0.586316 -0.688615
vn -0.426665 -0.586316 -0.688615
vn -0.426665 -0.586316 -0.688615
vn 0.000000 -1.000000 -0.000006
vn 0.000000 -1.000000 -0.000006
vn 0.000000 -1.000000 -0.000006
vn 0.000000 -1.000000 -0.000006
vn 0.399301 -0.582769 -0.707770
vn 0.399301 -0.582769 -0.707770
vn 0.399301 -0.582769 -0.707770
vn 0.399301 -0.582769 -0.707770
vn 0.689152 -0.223919 -0.689152
vn 0.689152 -0.223919 -0.689152
vn 0.689152 -0.223919 -0.689152
vn 0.689152 -0.223919 -0.689152
vn 0.689152 0.223919 -0.689152
vn 0.689152 0.223919 -0.689152
vn 0.689152 0.223919 -0.689152
vn 0.689152 0.223919 -0.689152
vn -0.425919 -0.586227 -0.689152
vn -0.425919 -0.586227 -0.689152
vn -0.425919 -0.586227 -0.689152
vn -0.425919 -0.586227 -0.689152
vn 0.005391 -0.713876 -0.700251
vn 0.005391 -0.713876 -0.700251
vn 0.005391 -0.713876 -0.700251
vn 0.005391 -0.713877 -0.700251
vn 0.451997 -0.531278 -0.716549
vn 0.451997 -0.531278 -0.716549
vn 0.451997 -0.531278 -0.716549
vn 0.451997 -0.531278 -0.716549
vn 0.641223 -0.262642 -0.721008
vn 0.641223 -0.262642 -0.721008
vn 0.641223 -0.262642 -0.721008
vn 0.641223 -0.262642 -0.721008
vn 0.675787 0.173538 -0.716378
vn 0.675787 0.173538 -0.716378
vn 0.675787 0.173538 -0.716378
vn 0.675787 0.173538 -0.716378
vn 0.412098 0.618568 -0.668991
vn 0.412098 0.618568 -0.668991
vn 0.412098 0.618568 -0.668991
vn 0.412098 0.618568 -0.668991
vn 0.000000 0.724618 -0.689151
vn 0.000000 0.724618 -0.689151
vn 0.000000 0.724618 -0.689151
vn 0.000000 0.724618 -0.689151
vn -0.412098 0.618568 -0.668991
vn -0.412098 0.618568 -0.668991
vn -0.412098 0.618568 -0.668991
vn -0.412098 0.618568 -0.668991
vn -0.689152 0.223919 -0.689152
vn -0.689152 0.223919 -0.689152
vn -0.689152 0.223919 -0.689152
vn -0.689152 0.223919 -0.689152
vn -0.689152 -0.223920 -0.689152
vn -0.689152 -0.223920 -0.689152
vn -0.689152 -0.223920 -0.689152
vn -0.689152 -0.223920 -0.689152
vn -0.897945 0.000000 0.440108
vn -0.898125 0.008635 0.439655
vn -0.898125 0.008618 0.439656
vn -0.897945 0.000000 0.440108
vn 0.000000 0.000000 1.000000
vn 0.000000 0.000000 1.000000
vn 0.000000 0.000000 1.000000
vn 0.000000 0.000000 1.000000
vn 0.897945 0.000000 0.440108
vn 0.897945 0.000000 0.440108
vn 0.897945 0.000000 0.440108
vn 0.897945 0.000000 0.440108
vn -0.897945 0.000000 -0.440108
vn -0.898125 0.008618 -0.439656
vn -0.898125 0.008635 -0.439655
vn -0.897945 0.000000 -0.440108
vn 0.897945 0.000000 -0.440108
vn 0.897945 0.000000 -0.440108
vn 0.897945 0.000000 -0.440108
vn 0.897945 0.000000 -0.440108
vn 0.000000 0.000000 -1.000000
vn 0.000000 0.000000 -1.000000
vn 0.000000 0.000000 -1.000000
vn 0.000000 0.000000 -1.000000
vn -0.897945 0.000000 0.440108
vn -0.897945 0.000000 0.440108
vn -0.897945 0.000000 0.440108
vn -0.897945 0.000000 0.440108
vn 0.000000 0.000000 1.000000
vn 0.000000 0.000000 1.000000
vn 0.000000 0.000000 1.000000
vn 0.000000 0.000000 1.000000
vn 0.897945 0.000000 0.440108
vn 0.897945 0.000000 0.440108
vn 0.897945 0.000000 0.440108
vn 0.897945 0.000000 0.440108
vn -0.897945 0.000000 -0.440108
vn -0.897945 0.000000 -0.440108
vn -0.897945 0.000000 -0.440108
vn -0.897945 0.000000 -0.440108
vn 0.897945 0.000000 -0.440108
vn 0.897945 0.000000 -0.440108
vn 0.897945 0.000000 -0.440108
vn 0.897945 0.000000 -0.440108
vn 0.000000 0.000000 -1.000000
vn 0.000000 0.000000 -1.000000
vn 0.000000 0.000000 -1.000000
vn 0.000000 0.000000 -1.000000
vn 0.000000 -0.094023 0.995570
vn 0.000000 -0.094023 0.995570
vn 0.000000 -0.043025 0.999074
vn 0.000000 -0.043549 0.999051
vn -0.863726 -0.125652 0.488046
vn -0.863726 -0.125652 0.488046
vn -0.887455 -0.052766 0.457864
vn -0.887698 -0.051909 0.457492
vn 0.861369 -0.132471 0.490402
vn 0.861369 -0.132471 0.490402
vn 0.885848 -0.075521 0.457788
vn 0.885379 -0.076720 0.458495
vn -0.863726 -0.125652 -0.488046
vn -0.863726 -0.125652 -0.488046
vn -0.887698 -0.051909 -0.457492
vn -0.887455 -0.052766 -0.457864
vn 0.000000 -0.094023 -0.995570
vn 0.000000 -0.094023 -0.995570
vn -0.000000 -0.043549 -0.999051
vn -0.000000 -0.043025 -0.999074
vn 0.861369 -0.132471 -0.490402
vn 0.861369 -0.132471 -0.490402
vn 0.885379 -0.076720 -0.458495
vn 0.885848 -0.075521 -0.457788
vn 0.000000 0.000000 1.000000
vn 0.000000 0.000000 1.000000
vn 0.000000 0.000000 1.000000
vn 0.000000 0.000000 1.000000
vn -0.897945 0.000000 0.440108
vn -0.897945 0.000000 0.440108
vn -0.897945 0.000000 0.440108
vn -0.897945 0.000000 0.440108
vn 0.897945 0.000000 0.440108
vn 0.897945 0.000000 0.440108
vn 0.897945 0.000000 0.440108
vn 0.897945 0.000000 0.440108
vn -0.897945 0.000000 -0.440108
vn -0.897945 0.000000 -0.440108
vn -0.897945 0.000000 -0.440108
vn -0.897945 0.000000 -0.440108
vn 0.000000 0.000000 -1.000000
vn 0.000000 0.000000 -1.000000
vn 0.000000 0.000000 -1.000000
vn 0.000000 0.000000 -1.000000
vn 0.897945 0.000000 -0.440108
vn 0.897945 0.000000 -0.440108
vn 0.897945 0.000000 -0.440108
vn 0.897945 0.000000 -0.440108
vn 0.000000 0.000000 1.000000
vn 0.000000 0.000000 1.000000
vn 0.000000 0.000000 1.000000
vn 0.000000 0.000000 1.000000
vn -0.897945 0.000000 0.440108
vn -0.897945 0.000000 0.440108
vn -0.897945 0.000000 0.440108
vn -0.897945 0.000000 0.440108
vn 0.897945 0.000000 0.440108
vn 0.897945 0.000000 0.440108
vn 0.897945 0.000000 0.440108
vn 0.897945 0.000000 0.440108
vn -0.897945 0.000000 -0.440108
vn -0.897945 0.000000 -0.440108
vn -0.897945 0.000000 -0.440108
vn -0.897945 0.000000 -0.440108
vn 0.000000 0.000000 -1.000000
vn 0.000000 0.000000 -1.000000
vn 0.000000 0.000000 -1.000000
vn 0.000000 0.000000 -1.000000
vn 0.897945 0.000000 -0.440108
vn 0.897945 0.000000 -0.440108
vn 0.897945 0.000000 -0.440108
vn 0.897945 0.000000 -0.440108
vn 0.000000 0.000000 1.000000
vn 0.000000 0.000000 1.000000
vn 0.000000 0.000000 1.000000
vn 0.000000 0.000000 1.000000
vn 0.000000 -1.000000 0.000000
vn 0.000000 -1.000000 0.000000
vn 0.000000 -1.000000 0.000000
vn 0.000000 -1.000000 0.000000
vn 0.000000 1.000000 0.000000
vn 0.000000 1.000000 0.000000
vn 0.000000 1.000000 0.000000
vn 0.000000 1.000000 0.000000
vn 0.000000 -1.000000 0.000000
vn 0.000000 -1.000000 0.000000
vn 0.000000 -1.000000 0.000000
vn 0.000000 -1.000000 0.000000
vn 0.000000 0.000000 -1.000000
vn 0.000000 0.000000 -1.000000
vn 0.000000 0.000000 -1.000000
vn 0.000000 0.000000 -1.000000
vn 0.000000 1.000000 0.000000
vn 0.000000 1.000000 0.000000
vn 0.000000 1.000000 0.000000
vn 0.000000 1.000000 0.000000
vn 0.000000 0.000000 1.000000
vn 0.000000 0.000000 1.000000
vn 0.000000 0.000000 1.000000
vn 0.000000 0.000000 1.000000
vn 0.000000 -1.000000 0.000000
vn 0.000000 -1.000000 0.000000
vn 0.000000 -1.000000 0.000000
vn 0.000000 -1.000000 0.000000
vn 0.000000 1.000000 0.000000
vn 0.000000 1.000000 0.000000
vn 0.000000 1.000000 0.000000
vn 0.000000 1.000000 0.000000
vn 0.000000 -1.000000 0.000000
vn 0.000000 -1.000000 0.000000
vn 0.000000 -1.000000 0.000000
vn 0.000000 -1.000000 0.000000
vn 0.000000 0.000000 -1.000000
vn 0.000000 0.000000 -1.000000
vn 0.000000 0.000000 -1.000000
vn 0.000000 0.000000 -1.000000
vn 0.000000 1.000000 0.000000
vn 0.000000 1.000000 0.000000
vn 0.000000 1.000000 0.000000
vn 0.000000 1.000000 0.000000
vn 0.000000 -0.043549 0.999051
vn 0.000000 -0.043025 0.999074
vn 0.000000 0.000000 1.000000
vn 0.000000 0.000000 1.000000
vn -0.887698 -0.051909 0.457492
vn -0.887455 -0.052766 0.457864
vn -0.897967 0.000910 0.440062
vn -0.897922 -0.000929 0.440155
vn 0.885379 -0.076720 0.458495
vn 0.885848 -0.075521 0.457788
vn 0.897884 0.002367 0.440226
vn 0.898002 -0.002410 0.439985
vn -0.887455 -0.052766 -0.457864
vn -0.887698 -0.051909 -0.457492
vn -0.897921 -0.000929 -0.440155
vn -0.897967 0.000910 -0.440062
vn -0.000000 -0.043025 -0.999074
vn -0.000000 -0.043549 -0.999051
vn -0.000000 0.000000 -1.000000
vn 0.000000 0.000000 -1.000000
vn 0.885848 -0.075521 -0.457788
vn 0.885379 -0.076720 -0.458495
vn 0.898002 -0.002410 -0.439985
vn 0.897884 0.002367 -0.440226
vn 0.000000 0.000000 1.000000
vn 0.000000 0.000000 1.000000
vn 0.000000 0.000000 1.000000
vn 0.000000 0.000000 1.000000
vn -0.897922 -0.000929 0.440155
vn -0.897967 0.000910 0.440062
vn -0.898125 0.008618 0.439656
vn -0.898125 0.008635 0.439655
vn 0.898002 -0.002410 0.439985
vn 0.897884 0.002367 0.440226
vn 0.896978 0.026382 0.441287
vn 0.896978 0.026382 0.441287
vn -0.897967 0.000910 -0.440062
vn -0.897921 -0.000929 -0.440155
vn -0.898125 0.008635 -0.439655
vn -0.898125 0.008618 -0.439656
vn 0.000000 0.000000 -1.000000
vn -0.000000 0.000000 -1.000000
vn 0.000000 0.000000 -1.000000
vn 0.000000 0.000000 -1.000000
vn 0.897884 0.002367 -0.440226
vn 0.898002 -0.002410 -0.439985
vn 0.896978 0.026382 -0.441287
vn 0.896978 0.026382 -0.441287
s off
f 2/1/1 1/2/2 11/3/3 12/4/4
f 3/5/5 2/1/6 12/4/7 13/6/8
f 4/7/9 3/5/10 13/6/11 14/8/12
f 5/9/13 4/7/14 14/8/15 15/10/16
f 6/11/17 5/9/18 15/10/19 16/12/20
f 7/13/21 6/11/22 16/12/23 17/14/24
f 8/15/25 7/13/26 17/14/27 18/16/28
f 9/17/29 8/15/30 18/16/31 19/18/32
f 10/19/33 9/17/34 19/18/35 20/20/36
f 1/2/37 10/19/38 20/20/39 11/3/40
f 12/4/41 11/3/42 21/21/43 22/22/44
f 13/6/45 12/4/46 22/22/47 23/23/48
f 14/8/49 13/6/50 23/23/51 24/24/52
f 15/10/53 14/8/54 24/24/55 25/25/56
f 16/12/57 15/10/58 25/25/59 26/26/60
f 17/14/61 16/12/62 26/26/63 27/27/64
f 42/28/65 41/29/66 43/30/67 44/31/68
f 19/18/69 18/16/70 28/32/71 29/33/72
f 20/20/73 19/18/74 29/33/75 30/34/76
f 11/3/77 20/20/78 30/34/79 21/21/80
f 22/22/81 21/21/82 31/35/83 32/36/84
f 23/23/85 22/22/86 32/36/87 33/37/88
f 24/24/89 23/23/90 33/37/91 34/38/92
f 25/25/93 24/24/94 34/38/95 35/39/96
f 26/26/97 25/25/98 35/39/99 36/40/100
f 27/27/101 26/26/102 36/40/103 37/41/104
f 44/31/105 43/30/106 45/42/107 46/43/108
f 29/33/109 28/32/110 38/44/111 39/45/112
f 30/34/113 29/33/114 39/45/115 40/46/116
f 21/21/117 30/34/118 40/46/119 31/35/120
f 32/36/121 31/35/122 1/2/123 2/1/124
f 33/37/125 32/36/126 2/1/127 3/5/128
f 34/38/129 33/37/130 3/5/131 4/7/132
f 35/39/133 34/38/134 4/7/135 5/9/136
f 36/40/137 35/39/138 5/9/139 6/11/140
f 37/41/141 36/40/142 6/11/143 7/13/144
f 38/44/145 37/41/146 7/13/147 8/15/148
f 39/45/149 38/44/150 8/15/151 9/17/152
f 40/46/153 39/45/154 9/17/155 10/19/156
f 31/35/157 40/46/158 10/19/159 1/2/160
f 47/47/161 48/48/162 52/49/163 51/50/164
f 48/48/165 47/47/166 50/51/167 49/52/168
f 72/53/169 71/54/170 73/55/171 74/56/172
f 51/50/173 52/49/174 56/57/175 55/58/176
f 74/56/177 73/55/178 75/59/179 76/60/180
f 55/58/181 56/57/182 58/61/183 57/62/184
f 59/63/185 60/64/186 64/65/187 63/66/188
f 60/64/189 59/63/190 62/67/191 61/68/192
f 78/69/193 77/70/194 79/71/195 80/72/196
f 63/66/197 64/65/198 68/73/199 67/74/200
f 80/72/201 79/71/202 81/75/203 82/76/204
f 67/74/205 68/73/206 70/77/207 69/78/208
f 18/16/209 17/14/210 83/79/211 84/80/212
f 17/14/213 27/27/214 85/81/215 83/79/216
f 28/32/217 18/16/218 84/80/219 86/82/220
f 27/27/221 37/41/222 87/83/223 85/81/224
f 37/41/225 38/44/226 88/84/227 87/83/228
f 38/44/229 28/32/230 86/82/231 88/84/232
f 50/51/233 47/47/234 60/64/235 61/68/236
f 47/47/237 51/50/238 64/65/239 60/64/240
f 54/85/241 50/51/242 61/68/243 65/86/244
f 51/50/245 55/58/246 68/73/247 64/65/248
f 55/58/249 57/62/250 70/77/251 68/73/252
f 57/62/253 54/85/254 65/86/255 70/77/256
f 62/67/257 59/63/258 41/29/259 42/28/260
f 59/63/261 63/66/262 43/30/263 41/29/264
f 66/87/265 62/67/266 42/28/267 44/31/268
f 63/66/269 67/74/270 45/42/271 43/30/272
f 67/74/273 69/78/274 46/43/275 45/42/276
f 69/78/277 66/87/278 44/31/279 46/43/280
f 49/52/281 50/51/282 71/54/283 72/53/284
f 50/51/285 54/85/286 73/55/287 71/54/288
f 53/88/289 49/52/290 72/53/291 74/56/292
f 54/85/293 57/62/294 75/59/295 73/55/296
f 57/62/297 58/61/298 76/60/299 75/59/300
f 58/61/301 53/88/302 74/56/303 76/60/304
f 61/68/305 62/67/306 77/70/307 78/69/308
f 62/67/309 66/87/310 79/71/311 77/70/312
f 65/86/313 61/68/314 78/69/315 80/72/316
f 66/87/317 69/78/318 81/75/319 79/71/320
f 69/78/321 70/77/322 82/76/323 81/75/324
f 70/77/325 65/86/326 80/72/327 82/76/328
f 84/80/329 83/79/330 91/89/331 89/90/332
f 83/79/333 85/81/334 92/91/335 91/89/336
f 86/82/337 84/80/338 89/90/339 90/92/340
f 85/81/341 87/83/342 93/93/343 92/91/344
f 87/83/345 88/84/346 94/94/347 93/93/348
f 88/84/349 86/82/350 90/92/351 94/94/352
f 89/90/353 91/89/354 48/48/355 49/52/356
f 91/89/357 92/91/358 52/49/359 48/48/360
f 90/92/361 89/90/362 49/52/363 53/88/364
f 92/91/365 93/93/366 56/57/367 52/49/368
f 93/93/369 94/94/370 58/61/371 56/57/372
f 94/94/373 90/92/374 53/88/375 58/61/376
